<?xml version="1.0" encoding="utf-8"?>
<!-- Generator: Adobe Illustrator 19.0.0, SVG Export Plug-In . SVG Version: 6.00 Build 0)  -->
<svg version="1.1" id="Layer_1" xmlns="http://www.w3.org/2000/svg" xmlns:xlink="http://www.w3.org/1999/xlink" x="0px" y="0px"
	 viewBox="0 0 96 96" style="enable-background:new 0 0 96 96;" xml:space="preserve">
<style type="text/css">
	.st0{fill:#333333;}
</style>
<g id="XMLID_2_">
	<path id="XMLID_7_" class="st0" d="M23.9,33.3c-2,0.8-3.4,2.8-3.4,5.1v33c0,3,2.5,5.5,5.5,5.5h44c3,0,5.5-2.5,5.5-5.5v-33
		c0-3-2.5-5.5-5.5-5.5H37.8l22.7-9.2l-1.9-4.6L23.9,33.3z M34.3,71.4c-4.6,0-8.3-3.7-8.3-8.3s3.7-8.3,8.3-8.3s8.3,3.7,8.3,8.3
		S38.8,71.4,34.3,71.4z M70,49.4h-5.5v-5.5H59v5.5H26v-11h44V49.4z"/>
</g>
</svg>
